<svg id="Layer_1" data-name="Layer 1" xmlns="http://www.w3.org/2000/svg" xmlns:xlink="http://www.w3.org/1999/xlink" width="736" height="292.35" viewBox="0 0 736 292.35"><defs><style>.cls-1{fill:#fff;}.cls-2{mask:url(#mask);}.cls-3{fill:#231f20;}.cls-4{mask:url(#mask-2);}.cls-5{fill:#840028;}.cls-6{mask:url(#mask-3);}</style><mask id="mask" x="2.27" y="0" width="92.08" height="89.42" maskUnits="userSpaceOnUse"><g transform="translate(-7 -228.83)"><g id="b"><path id="a" class="cls-1" d="M9.27,228.83h92.08v89.42H9.27Z"/></g></g></mask><mask id="mask-2" x="696.09" y="135.4" width="39.91" height="61.99" maskUnits="userSpaceOnUse"><g transform="translate(-7 -228.83)"><g id="d"><path id="c" class="cls-1" d="M703.09,364.23H743v62H703.1Z"/></g></g></mask><mask id="mask-3" x="335.21" y="228.66" width="30.52" height="63.69" maskUnits="userSpaceOnUse"><g transform="translate(-7 -228.83)"><g id="f"><path id="e" class="cls-1" d="M342.22,457.49h30.51v63.68H342.21Z"/></g></g></mask></defs><title>university-of-massachusetts-amherst-logo</title><g class="cls-2"><path class="cls-3" d="M101.35,232.59c-8.09.54-11.19,2.42-11.86,7.93-.41,3.63-.67,9.42-.67,21.79v11.16c0,15.87-2.43,27.3-10.25,35.5-6.2,6.45-15.24,9.28-24.13,9.28-7.82,0-15.64-1.88-21.57-6.46-8.09-6.18-11.87-16.27-11.87-32V246.17c0-12.1-1.07-12.64-11.73-13.58v-3.76H44.19v3.76c-10.65.67-11.72,1.48-11.72,13.58v30.66c0,21.65,8.62,34,25.34,34,19.41,0,25.48-16.13,25.48-38.32V262.31c0-12.37-.41-18-1-22.19-.8-5.24-3.64-6.86-13.07-7.53v-3.76h32.08v3.76Z" transform="translate(-7 -228.83)"/></g><path class="cls-3" d="M137.07,316.23v-3.49c8-.81,8.9-1.89,8.9-11.17V279.12c0-9.28-3.24-15.34-12.27-15.34-5.39,0-10.65,3.37-14.69,6.87v31.59c0,9.15.81,9.69,8.76,10.5v3.49H98.51v-3.49c9.17-.95,9.85-1.62,9.85-10.5V274.41c0-8.6-.81-9-8.09-10.35V261A81.19,81.19,0,0,0,119,255.45v10.76c2.69-2,5.66-4,9-6.32,3.77-2.42,7.28-4,11.19-4,10.65,0,17.39,7.39,17.39,20.43v25.95c0,9.15.67,9.69,8.49,10.5v3.49Zm41.38-78.93a6.93,6.93,0,0,1,6.87-7,6.74,6.74,0,0,1,6.75,7,6.89,6.89,0,0,1-6.88,6.85A7.05,7.05,0,0,1,178.45,237.3Zm-7.14,78.93v-3.49c8.49-.81,9.43-1.62,9.43-10.76v-27.7c0-8.34-.4-8.88-8.49-10.22v-3.23a85.85,85.85,0,0,0,19.15-5.24V302c0,9.14.94,9.95,9.57,10.76v3.49Zm92.34-55.4c-7,.94-8.22,2.15-11.86,10.22q-10.22,23-19,46.66h-3.64c-6.07-16.13-12.27-31.47-18.61-47.06-3.1-7.8-4.18-8.74-11.45-9.82v-3.36h27.63v3.36c-7.28.94-7.55,2-5.39,7.8,3.51,9.41,8.89,23.53,12.81,33.21,4.71-11.16,9-23.4,12-32.14,2-6.45,1.21-7.93-6.48-8.87v-3.36h24Zm8,16.54c7.55,0,15-.14,22.78-.4,2.43,0,3.24-.81,3.24-2.69.13-7-4.45-13.45-11.87-13.45C279.55,260.83,273.62,266.48,271.6,277.37Zm36.94,27.43c-8.5,10.62-17.8,13.05-22,13.05-16.58,0-26.29-13.45-26.29-28.65a34.56,34.56,0,0,1,8.9-23.53c5.53-6.18,12.81-9.81,19.82-9.81,11.19,0,20.22,9.95,20.22,20.43,0,2.69-.67,3.77-3.1,4.31s-19.14,1.74-35.18,2.28c.13,18.29,10.64,25.82,20.08,25.82,5.39,0,10.52-2.15,15.37-6.72Zm27.36-34.69c4.05-6.72,9.84-14.25,16.31-14.25,4.58,0,7.82,3.49,7.82,6.72a7.55,7.55,0,0,1-4.31,6.59c-1.62.67-2.83.53-3.64-.27-1.89-2-3.51-2.83-5.67-2.83-3.5,0-7.81,4-10.78,11.57v24.6c0,8.88.67,9.69,11.06,10.5v3.49h-31v-3.49c8.36-.81,9.3-1.62,9.3-10.5V274.41c0-8.87-.67-9.41-8.36-10.49v-3a75.82,75.82,0,0,0,19-5.51v14.66Zm62,3.23C395.35,265.4,390.63,260,384,260c-5.12,0-8.76,4-8.76,9.28,0,6.05,5.39,9.14,11.46,11.7,10.11,4.17,17,9,17,18.29,0,12.24-11.46,18.56-22.25,18.56-6.87,0-13.08-2.56-15.5-4.58-.95-1.88-2.16-11-2.16-15.87l3.51-.67c2.43,8.88,8.49,16.68,16.58,16.68a9.39,9.39,0,0,0,9.57-9.41c0-5.92-3.91-9.15-10.65-12.24C374.72,288,366,283.55,366,273.2c0-9.41,8.09-17.34,20.49-17.34a31.56,31.56,0,0,1,12,2.28,101.38,101.38,0,0,1,3,14.39l-3.51.81Zm20.62-36a6.93,6.93,0,0,1,6.88-7,6.74,6.74,0,0,1,6.74,7,6.89,6.89,0,0,1-6.88,6.85A7,7,0,0,1,418.53,237.3Zm-7.14,78.93v-3.49c8.49-.81,9.43-1.62,9.43-10.76v-27.7c0-8.34-.4-8.88-8.49-10.22v-3.23a85.76,85.76,0,0,0,19.14-5.24V302c0,9.14.95,9.95,9.57,10.76v3.49Zm61.47-.13a13.71,13.71,0,0,1-5.66,1.75c-8.5,0-13.22-5.38-13.22-16V262.71h-9.3l-.54-1.34,3.64-3.9H454v-9.82l8.77-8.87,1.88.26v18.43h15.24a3.81,3.81,0,0,1-.81,5.24H464.63v34.56c0,10.89,4.45,12.91,7.82,12.91a19.21,19.21,0,0,0,8.36-2.29l1.21,3.5Zm74-55.27c-7.14,1.08-8.35,2.15-12,9.82-3.38,7.12-7.55,18.28-16.86,40.47-9,21.52-12,29.18-13.88,36.44a4,4,0,0,1-4.32,3.23c-3.77,0-7.68-3.23-7.68-6.45,0-2.16,1.22-3.36,3.51-4.84,4.17-2.69,6.87-6.05,10-12a51.55,51.55,0,0,0,4.18-9.28,8.49,8.49,0,0,0-.13-6.05c-5.4-15.33-11.46-31.6-15.5-41.15-2.84-7.4-4.19-9.14-11.6-10.22v-3.36h27.37v3.36c-6.2,1.08-6.88,2.42-5.13,7.4L517.07,302c3.78-9.15,9.57-25,12.4-33.49,1.62-5.1.68-6.58-7-7.66v-3.36h24.4ZM85.45,424.61v-3.77c10.92-1.07,11.46-1.75,11.32-16L96.37,350h-.54l-32.9,73.7h-2.7L30,351.86h-.27l-2,38.32c-.54,11-.54,16.94-.41,22.32.27,6.46,3.5,7.4,12.4,8.34v3.77H8.33v-3.77c7.82-.94,10.52-2.42,11.47-8.07.67-4.7,1.48-10.62,2.56-24.61l1.88-28c1.22-17.48.54-18-11.72-19.23V337.2H34.63l30.73,67.24L96.51,337.2h22.91V341c-11.86,1.08-12.81,1.35-12.4,15.2l1.34,48.68c.41,14.25.81,14.93,12.55,16v3.77Zm72.78-32.28c-2.83,1.48-9.3,4.3-12.13,5.65-5.26,2.42-8.22,5-8.22,9.82,0,7,5.39,10.35,9.57,10.35,3.5-.13,8.22-2.42,10.78-4.84v-21Zm9.85,33.89a11,11,0,0,1-6.34-2.55,14.11,14.11,0,0,1-3.24-6.06c-5.39,3.63-11.86,8.61-15.91,8.61a16.25,16.25,0,0,1-16.17-16.41c0-6.59,3.5-10.75,10.92-13.31,8.09-2.69,17.92-6.32,20.89-8.74v-2.42c0-9.68-4.58-15.19-11.32-15.19a7.6,7.6,0,0,0-6.07,2.69c-1.75,1.74-3,4.7-4,8.87a3.75,3.75,0,0,1-3.91,3.09c-2.43,0-5.93-2.69-5.93-5.78,0-2,1.75-3.5,4.31-5.38,3.77-2.69,12.54-7.93,20.22-9.41a17.62,17.62,0,0,1,11.06,3.63c4.72,3.9,6.06,9.41,6.06,16.4v25c0,6.05,2.43,8.07,4.72,8.07a10.35,10.35,0,0,0,4.86-1.48l1.34,3.49ZM218,381.71c-2.56-7.93-7.28-13.31-13.88-13.31-5.13,0-8.77,4-8.77,9.28,0,6.05,5.39,9.14,11.46,11.69,10.11,4.17,17,9,17,18.29,0,12.24-11.46,18.56-22.25,18.56-6.87,0-13.07-2.55-15.5-4.57-.95-1.88-2.16-11-2.16-15.87l3.51-.67c2.43,8.87,8.49,16.67,16.58,16.67a9.39,9.39,0,0,0,9.57-9.41c0-5.92-3.91-9.15-10.65-12.24-8.09-3.76-16.85-8.2-16.85-18.55,0-9.42,8.09-17.35,20.49-17.35a31.34,31.34,0,0,1,12,2.29,101.24,101.24,0,0,1,3,14.38Zm47.45,0c-2.56-7.93-7.28-13.31-13.88-13.31-5.13,0-8.77,4-8.77,9.28,0,6.05,5.39,9.14,11.46,11.69,10.11,4.17,17,9,17,18.29,0,12.24-11.46,18.56-22.25,18.56-6.87,0-13.07-2.55-15.5-4.57-.95-1.88-2.16-11-2.16-15.87l3.51-.67c2.43,8.87,8.49,16.67,16.58,16.67a9.39,9.39,0,0,0,9.57-9.41c0-5.92-3.91-9.15-10.65-12.24-8.09-3.76-16.85-8.2-16.85-18.55,0-9.42,8.09-17.35,20.49-17.35a31.34,31.34,0,0,1,12,2.29,101.24,101.24,0,0,1,3,14.38l-3.51.81Zm44.75,10.62c-2.83,1.48-9.3,4.3-12.13,5.65-5.26,2.42-8.22,5-8.22,9.82,0,7,5.39,10.35,9.57,10.35,3.51-.13,8.22-2.42,10.78-4.84ZM320,426.22a11,11,0,0,1-6.33-2.55,14,14,0,0,1-3.24-6.06c-5.39,3.63-11.86,8.61-15.91,8.61a16.25,16.25,0,0,1-16.17-16.41c0-6.59,3.5-10.75,10.92-13.31,8.09-2.69,17.93-6.32,20.89-8.74v-2.42c0-9.68-4.58-15.19-11.32-15.19a7.6,7.6,0,0,0-6.07,2.69c-1.75,1.74-3,4.7-4,8.87a3.75,3.75,0,0,1-3.91,3.09c-2.43,0-5.93-2.69-5.93-5.78,0-2,1.75-3.5,4.31-5.38,3.77-2.69,12.54-7.93,20.22-9.41a17.62,17.62,0,0,1,11.06,3.63c4.72,3.9,6.06,9.41,6.06,16.4v25c0,6.05,2.43,8.07,4.72,8.07a10.35,10.35,0,0,0,4.86-1.48l1.34,3.49Zm63.23-13.72c-5.93,7.8-15,13.72-22.92,13.72-17,0-27-13.72-27-28.11,0-10.35,4.46-19.36,13.49-26.35,7-5.38,15.1-7.53,20.35-7.53s9.85,1.75,12,3.5a4.92,4.92,0,0,1,2.16,4.16c0,2.83-3,5.79-4.45,5.79-.67,0-1.35-.41-2.56-1.48a19.57,19.57,0,0,0-13.49-5.52c-8.89,0-16.71,7.4-16.71,21.52,0,18.69,12.81,24.87,20.36,24.87,5.79,0,10.25-1.61,16.45-7.39Zm38.41,12.11v-3.5c7.82-.81,8.9-1.61,8.9-10.36V388.43c0-11-4.18-16.54-13.21-16.54a19,19,0,0,0-14,6.86v32c0,8.6.67,9.54,8.63,10.35v3.5H383.35v-3.5c8.09-.67,9.3-1.48,9.3-10.36V346.62c0-8.48-.27-9.15-9.17-9.95v-3.1a148.5,148.5,0,0,0,19.82-4.7V374c4.72-4.84,12-9.82,19.28-9.82,10.92,0,18.6,6.86,18.6,23v23.53c0,8.88.94,9.68,8.9,10.36v3.49H421.63Zm95-3.23a151.08,151.08,0,0,0-19.82,4.84l-.81-.81v-9.54c-3.1,2.28-6.2,4.7-10,7s-6.74,3.36-10.38,3.36c-9,0-16.72-5.51-16.72-20V379.83c0-7.4-.54-7.94-8.22-9.41v-3.1A162.07,162.07,0,0,0,470,364.9c-.4,4.17-.4,10.49-.4,19.63v18c0,12,5.8,15.2,11.87,15.2,4.85,0,10-2,14.55-6.46V380c0-7.66-.8-8.2-10.51-9.55v-3.09a143.07,143.07,0,0,0,21.16-2.42v44.92c0,6.72,1.08,7.66,6.2,7.93l3.78.27v3.36Zm40.17-39.67c-2.57-7.93-7.29-13.31-13.89-13.31-5.12,0-8.76,4-8.76,9.28,0,6.05,5.39,9.14,11.46,11.69,10.11,4.17,17,9,17,18.29,0,12.24-11.46,18.56-22.24,18.56-6.87,0-13.07-2.55-15.5-4.57-.95-1.88-2.16-11-2.16-15.87l3.5-.67c2.43,8.87,8.5,16.67,16.59,16.67a9.39,9.39,0,0,0,9.57-9.41c0-5.92-3.91-9.15-10.65-12.24-8.09-3.76-16.85-8.2-16.85-18.55,0-9.42,8.08-17.35,20.49-17.35a31.28,31.28,0,0,1,12,2.29,98.54,98.54,0,0,1,3,14.38l-3.5.81Zm24.67,4c7.54,0,15-.13,22.78-.4,2.43,0,3.23-.81,3.23-2.69.14-7-4.44-13.44-11.86-13.44-6.2,0-12.13,5.64-14.15,16.53Zm36.94,27.44c-8.5,10.62-17.8,13-22,13-16.58,0-26.29-13.45-26.29-28.64a34.56,34.56,0,0,1,8.9-23.53c5.53-6.19,12.81-9.82,19.82-9.82,11.19,0,20.22,9.95,20.22,20.44,0,2.69-.67,3.76-3.1,4.3s-19.14,1.75-35.19,2.29c.14,18.29,10.65,25.82,20.09,25.82,5.39,0,10.51-2.15,15.37-6.73Zm32.34,11.29a13.67,13.67,0,0,1-5.66,1.75c-8.49,0-13.21-5.38-13.21-16V371.09h-9.3l-.54-1.35,3.64-3.9h6.2V356l8.76-8.88,1.89.27v18.42H657.8a3.82,3.82,0,0,1-.8,5.25H642.57v34.56c0,10.89,4.44,12.91,7.82,12.91a19.35,19.35,0,0,0,8.36-2.29l1.21,3.5-9.17,4.7Zm38.69,0a13.67,13.67,0,0,1-5.66,1.75c-8.49,0-13.21-5.38-13.21-16V371.09H661.3l-.53-1.35,3.63-3.9h6.2V356l8.77-8.88,1.89.27v18.42h15.23a3.82,3.82,0,0,1-.8,5.25H681.26v34.56c0,10.89,4.45,12.91,7.82,12.91a19.26,19.26,0,0,0,8.35-2.29l1.22,3.5-9.17,4.7Z" transform="translate(-7 -228.83)"/><g class="cls-4"><path class="cls-3" d="M737.2,381.71c-2.56-7.93-7.28-13.31-13.88-13.31-5.12,0-8.77,4-8.77,9.28,0,6.05,5.4,9.14,11.46,11.69,10.11,4.17,17,9,17,18.29,0,12.24-11.46,18.56-22.25,18.56-6.87,0-13.07-2.55-15.5-4.57-.94-1.88-2.16-11-2.16-15.87l3.5-.67c2.43,8.87,8.5,16.67,16.59,16.67a9.39,9.39,0,0,0,9.57-9.41c0-5.92-3.91-9.15-10.65-12.24-8.08-3.76-16.85-8.2-16.85-18.55,0-9.42,8.09-17.35,20.49-17.35a31.34,31.34,0,0,1,12,2.29,101.24,101.24,0,0,1,3,14.38Z" transform="translate(-7 -228.83)"/></g><path class="cls-3" d="M582,299.16c4.86-2.07,9.8-11.57,9.8-23,0-7.26-3.15-10.76-7.28-10.76a8,8,0,0,0-3.41.8c-3.51,1.53-9.53,8.88-9.53,22.69,0,6.63,2.78,10.84,7.55,10.84a7.56,7.56,0,0,0,2.87-.53m-18-9.87c0-11.65,6.2-20.52,13.66-24.47a22.92,22.92,0,0,1,9.71-2.87c7.45,0,12,5.11,12,14,0,7.71-3.32,16.49-9.62,21.69-3.86,3.23-8.8,5.65-13.84,5.65-8.54,0-11.86-6.72-11.86-14" transform="translate(-7 -228.83)"/><path class="cls-3" d="M610.6,263.39c1.35-6.81,3.5-13.36,7.54-17.84s9.27-7.17,12.86-7.17c3.14,0,5.48,2.24,5.39,3.85a5.53,5.53,0,0,1-2.25,3.68,1.58,1.58,0,0,1-2.24-.09c-1.89-2-3.77-3.14-5.66-3.14-3.33,0-6,4.12-8.72,20.71h10.15l-1.88,2.78-9,.89c-1.62,9.86-2.61,15.33-4.58,25.28-3.15,15.42-6.47,22.15-11.42,27.26-3.95,4.21-7.73,5.64-10.15,5.64-2.61,0-5.67-1.79-5.58-3.85,0-1.17,1.08-2.69,2.43-3.77.72-.62,1.17-.53,1.71,0a9.59,9.59,0,0,0,5.66,2.25,5.11,5.11,0,0,0,3.87-1.8c1.16-1.34,3.32-5.11,6.29-22.5,2.15-12.37,3.32-19.9,4.85-28.69h-7.46l-.27-1,2.7-2.51Z" transform="translate(-7 -228.83)"/><path class="cls-5" d="M40.66,461.93h-.22c-3.47,9.31-6.94,18.73-10.2,27.62h20ZM51.3,519.87v-3c6.84-.86,7.82-1.73,6.41-6s-3.59-10.07-6-16.68H28.61c-1.74,4.88-3.36,9.43-4.78,14-2.39,6.82-1.41,7.9,6.73,8.66v3H7v-3c6.84-1,8.36-1.62,12.16-11.15l22.48-56.87,3.36-1c6.74,18.63,14,39.21,21,58,3.48,9.32,4.89,10.29,12,10.94v3Zm89.7,0v-2.81c6.4-.65,7.6-1.08,7.6-8.78V490.2c0-7.69-2.72-12.56-9.56-12.56-3.91,0-8,2.16-12.16,5.63a25,25,0,0,1,.33,4.55v21.12c0,6.82,1,7.47,6.94,8.12v2.82H110.92v-2.82c6.73-.65,7.71-1.19,7.71-8.34V490.09c0-8-2.83-12.46-9.45-12.46-4.34,0-8.58,2.93-11.83,5.63v25.46c0,7,.87,7.69,6.18,8.34v2.81H80.62v-2.81c7.17-.65,8.15-1.3,8.15-8.34V486.3c0-6.93-.33-7.47-6.63-8.45v-2.49a66.23,66.23,0,0,0,15.09-4.45v8.78c2.29-1.52,4.68-3.47,7.93-5.53,2.83-1.73,5.43-2.92,8.91-2.92,5.21,0,9.88,3.25,12.05,8.88a101.28,101.28,0,0,1,9-6.06,15,15,0,0,1,8.15-2.82c8.47,0,13.79,6,13.79,16.57v20.91c0,7.26.86,7.69,7.06,8.34v2.81Zm57.33,0v-2.81c6.3-.65,7.17-1.3,7.17-8.34v-18c0-8.88-3.37-13.32-10.64-13.32a15.32,15.32,0,0,0-11.3,5.52v25.77c0,6.94.55,7.7,6.95,8.35v2.81h-23v-2.81c6.52-.54,7.5-1.2,7.5-8.34V457.05c0-6.82-.22-7.36-7.39-8v-2.49a118.86,118.86,0,0,0,16-3.8v36.4c3.81-3.9,9.67-7.91,15.53-7.91,8.8,0,15,5.53,15,18.52v19c0,7.15.76,7.8,7.17,8.34v2.81ZM234,488.57c6.08,0,12.05-.11,18.35-.32,2,0,2.61-.65,2.61-2.17.11-5.63-3.59-10.83-9.56-10.83C240.36,475.25,235.58,479.8,234,488.57Zm29.75,22.1c-6.84,8.56-14.33,10.5-17.7,10.5-13.35,0-21.17-10.83-21.17-23.07a27.81,27.81,0,0,1,7.17-19c4.45-5,10.31-7.91,16-7.91,9,0,16.29,8,16.29,16.47,0,2.16-.55,3-2.5,3.46s-15.42,1.41-28.34,1.84c.11,14.73,8.58,20.8,16.18,20.8,4.34,0,8.47-1.73,12.38-5.42Zm22.05-27.95c3.26-5.41,7.93-11.47,13.14-11.47,3.69,0,6.29,2.81,6.29,5.41a6,6,0,0,1-3.47,5.3c-1.3.55-2.28.44-2.93-.21a5.84,5.84,0,0,0-4.56-2.28c-2.83,0-6.3,3.25-8.69,9.32v19.82c0,7.15.55,7.8,8.9,8.45v2.81h-25v-2.81c6.73-.65,7.49-1.3,7.49-8.45V486.19c0-7.15-.54-7.58-6.73-8.45v-2.38a61.84,61.84,0,0,0,15.31-4.44v11.8Zm49.41,2.6c-2.07-6.39-5.87-10.72-11.19-10.72-4.13,0-7.06,3.25-7.06,7.47,0,4.88,4.35,7.37,9.23,9.43,8.15,3.35,13.69,7.25,13.69,14.73,0,9.85-9.24,14.94-17.92,14.94-5.54,0-10.53-2-12.49-3.68-.76-1.51-1.74-8.88-1.74-12.78l2.83-.54c1.95,7.15,6.84,13.43,13.35,13.43a7.56,7.56,0,0,0,7.71-7.58c0-4.77-3.15-7.37-8.58-9.86-6.51-3-13.57-6.61-13.57-15,0-7.58,6.52-14,16.51-14a25.46,25.46,0,0,1,9.66,1.83A81.53,81.53,0,0,1,338,484.67Z" transform="translate(-7 -228.83)"/><g class="cls-6"><path class="cls-5" d="M365.34,519.77a11,11,0,0,1-4.55,1.4c-6.85,0-10.65-4.33-10.65-12.88V476.77h-7.49l-.43-1.08,2.93-3.15h5v-7.9l7.05-7.15,1.52.22v14.83H371a3.08,3.08,0,0,1-.65,4.23H358.72V504.6c0,8.78,3.59,10.4,6.3,10.4a15.54,15.54,0,0,0,6.73-1.84l1,2.82Z" transform="translate(-7 -228.83)"/></g></svg>